<?xml version="1.0" encoding="UTF-8"?>
<svg version="1.1" xmlns="http://www.w3.org/2000/svg" xmlns:xlink="http://www.w3.org/1999/xlink">
    
    <!-- <symbol id="arrow_right" viewBox="0 0 20 20">
        <path d="M19.354 10.146l-6-6c-0.195-0.195-0.512-0.195-0.707 0s-0.195 0.512 0 0.707l5.146 5.146h-16.293c-0.276 0-0.5 0.224-0.5 0.5s0.224 0.5 0.5 0.5h16.293l-5.146 5.146c-0.195 0.195-0.195 0.512 0 0.707 0.098 0.098 0.226 0.146 0.354 0.146s0.256-0.049 0.354-0.146l6-6c0.195-0.195 0.195-0.512 0-0.707z" fill="currentcolor"></path>
    </symbol> -->

    <symbol id="arrow_right" viewBox="0 0 20 20">
        <path d="M5 20c-0.128 0-0.256-0.049-0.354-0.146-0.195-0.195-0.195-0.512 0-0.707l8.646-8.646-8.646-8.646c-0.195-0.195-0.195-0.512 0-0.707s0.512-0.195 0.707 0l9 9c0.195 0.195 0.195 0.512 0 0.707l-9 9c-0.098 0.098-0.226 0.146-0.354 0.146z" fill="currentcolor"></path>
    </symbol>

    <symbol id="feather" viewBox="0 0 20 20">
        <path d="M4.501 15c-0.017 0-0.034-0.001-0.052-0.003-0.273-0.028-0.472-0.271-0.447-0.544 0.239-2.52 1.062-4.786 2.449-6.734 1.138-1.599 2.649-2.982 4.493-4.11 3.19-1.952 6.524-2.609 7.556-2.609 0.276 0 0.5 0.224 0.5 0.5 0 0.944-0.877 1.821-1.252 2.196-0.611 0.611-1.712 0.993-2.777 1.363-0.031 0.011-0.062 0.022-0.093 0.032 0.682-0.034 1.269-0.039 1.557-0.039 0.065 0 0.101 0 0.101 0 0.186 0.002 0.355 0.106 0.44 0.271s0.072 0.363-0.035 0.516c-0.8 1.145-1.776 2.037-2.983 2.727-0.579 0.331-1.217 0.485-2.009 0.485-0.462 0-0.926-0.052-1.375-0.102-0.433-0.048-0.881-0.098-1.309-0.098-0.774 0-1.363 0.162-1.909 0.526-0.017 0.012-0.035 0.022-0.054 0.031-0.725 0.362-1.352 1.351-1.815 2.859-0.367 1.196-0.49 2.278-0.491 2.289-0.028 0.255-0.245 0.445-0.496 0.445zM17.805 2.068c-1.305 0.2-3.851 0.872-6.338 2.394-1.376 0.842-2.917 2.068-4.157 3.794 0.576-0.275 1.211-0.405 1.956-0.405 0.484 0 0.96 0.053 1.42 0.104 0.442 0.049 0.859 0.096 1.265 0.096 0.611 0 1.091-0.112 1.513-0.353 0.789-0.451 1.45-0.98 2.028-1.629-0.928 0.029-2.277 0.11-3.125 0.336-0.201 0.054-0.414-0.023-0.535-0.192s-0.125-0.395-0.010-0.568c0.477-0.715 1.616-1.111 2.823-1.53 0.958-0.333 1.949-0.677 2.398-1.126 0.158-0.158 0.532-0.532 0.763-0.921z" fill="currentcolor"></path>
        <path d="M7.568 16.925c-0.006-0.006-0.568-0.641-0.568-1.425 0-0.36-0.193-0.701-0.544-0.961-0.222-0.164-0.535-0.117-0.699 0.105s-0.117 0.535 0.105 0.699c0.114 0.084 0.139 0.146 0.139 0.157 0 0.017-0.054 0.132-0.309 0.26-0.305 0.153-0.739 0.24-1.191 0.24s-0.885-0.088-1.191-0.24c-0.256-0.128-0.309-0.243-0.309-0.26 0-0.008 0.016-0.054 0.095-0.122 0.209-0.181 0.232-0.496 0.051-0.705s-0.496-0.232-0.705-0.051c-0.364 0.315-0.441 0.651-0.441 0.878 0 0.785-0.564 1.42-0.568 1.425-0.543 0.593-0.543 1.557 0 2.15 0.087 0.095 0.91 0.925 3.068 0.925s2.981-0.83 3.068-0.925c0.543-0.593 0.543-1.557 0-2.15zM6.831 18.399c-0.006 0.006-0.627 0.601-2.331 0.601-1.656 0-2.293-0.566-2.336-0.606-0.19-0.214-0.188-0.582 0.005-0.793 0.022-0.024 0.366-0.405 0.604-0.993 0.029 0.016 0.058 0.032 0.089 0.047 0.446 0.223 1.027 0.346 1.638 0.346s1.192-0.123 1.638-0.346c0.030-0.015 0.060-0.031 0.089-0.047 0.238 0.588 0.582 0.969 0.604 0.993 0.195 0.213 0.195 0.586 0 0.799z" fill="currentcolor"></path>
    </symbol>

    <symbol id="graduation_hat" viewBox="0 0 20 20">
        <path d="M18.658 7.026l-9-3c-0.103-0.034-0.214-0.034-0.316 0l-9 3c-0.204 0.068-0.342 0.259-0.342 0.474s0.138 0.406 0.342 0.474l2.658 0.886v2.64c0 0.133 0.053 0.26 0.146 0.354 0.088 0.088 2.194 2.146 6.354 2.146 1.513 0 2.924-0.272 4.195-0.809 0.254-0.107 0.373-0.401 0.266-0.655s-0.401-0.373-0.655-0.266c-1.147 0.485-2.427 0.73-3.805 0.73-1.945 0-3.376-0.504-4.234-0.926-0.635-0.313-1.060-0.629-1.266-0.799v-2.081l5.342 1.781c0.051 0.017 0.105 0.026 0.158 0.026s0.107-0.009 0.158-0.026l5.342-1.781v0.892c-0.582 0.206-1 0.762-1 1.414 0 0.611 0.367 1.137 0.892 1.371l-0.877 3.508c-0.037 0.149-0.004 0.308 0.091 0.429s0.24 0.192 0.394 0.192h2c0.154 0 0.299-0.071 0.394-0.192s0.128-0.28 0.091-0.429l-0.877-3.508c0.525-0.234 0.892-0.76 0.892-1.371 0-0.652-0.418-1.208-1-1.414v-1.226l2.658-0.886c0.204-0.068 0.342-0.259 0.342-0.474s-0.138-0.406-0.342-0.474zM15.5 11c0.276 0 0.5 0.224 0.5 0.5s-0.224 0.5-0.5 0.5-0.5-0.224-0.5-0.5 0.224-0.5 0.5-0.5zM15.14 16l0.36-1.438 0.36 1.438h-0.719zM15.46 7.986l-5.877-0.98c-0.273-0.045-0.53 0.139-0.575 0.411s0.139 0.53 0.411 0.575l4.014 0.669-3.932 1.311-7.419-2.473 7.419-2.473 7.419 2.473-1.459 0.486z" fill="currentcolor"></path>
    </symbol>

    <symbol id="map_marker" viewBox="0 0 20 20">
        <path d="M10 20c-0.153 0-0.298-0.070-0.393-0.191-0.057-0.073-1.418-1.814-2.797-4.385-0.812-1.513-1.46-2.999-1.925-4.416-0.587-1.787-0.884-3.472-0.884-5.008 0-3.308 2.692-6 6-6s6 2.692 6 6c0 1.536-0.298 3.22-0.884 5.008-0.465 1.417-1.113 2.903-1.925 4.416-1.38 2.571-2.74 4.312-2.797 4.385-0.095 0.121-0.24 0.191-0.393 0.191zM10 1c-2.757 0-5 2.243-5 5 0 3.254 1.463 6.664 2.691 8.951 0.902 1.681 1.809 3.014 2.309 3.71 0.502-0.699 1.415-2.040 2.318-3.726 1.223-2.283 2.682-5.687 2.682-8.935 0-2.757-2.243-5-5-5z" fill="currentcolor"></path>
        <path d="M10 9c-1.654 0-3-1.346-3-3s1.346-3 3-3 3 1.346 3 3-1.346 3-3 3zM10 4c-1.103 0-2 0.897-2 2s0.897 2 2 2c1.103 0 2-0.897 2-2s-0.897-2-2-2z" fill="currentcolor"></path>
    </symbol>

    <symbol id="map" viewBox="0 0 20 20">
        <path d="M18.763 1.075c-0.147-0.091-0.331-0.099-0.486-0.022l-5.776 2.888-5.776-2.888c-0.141-0.070-0.306-0.070-0.447 0l-6 3c-0.169 0.085-0.276 0.258-0.276 0.447v15c0 0.173 0.090 0.334 0.237 0.425 0.080 0.050 0.171 0.075 0.263 0.075 0.076 0 0.153-0.018 0.224-0.053l5.776-2.888 5.776 2.888c0.141 0.070 0.307 0.070 0.447 0l6-3c0.169-0.085 0.276-0.258 0.276-0.447v-15c-0-0.173-0.090-0.334-0.237-0.425zM6 16.191l-5 2.5v-13.882l5-2.5v13.882zM7 2.309l5 2.5v13.882l-5-2.5v-13.882zM18 16.191l-5 2.5v-13.882l5-2.5v13.882z" fill="currentcolor"></path>
    </symbol>

    <symbol id="bubbles" viewBox="0 0 20 20">
        <path d="M19.501 18c-0-0-0-0-0.001 0-1.341 0-2.734-0.856-3.247-1.206-0.563 0.136-1.151 0.206-1.753 0.206-1.437 0-2.795-0.396-3.822-1.116-1.082-0.757-1.678-1.782-1.678-2.884s0.596-2.127 1.678-2.884c1.028-0.719 2.385-1.116 3.822-1.116s2.795 0.396 3.822 1.116c1.082 0.757 1.678 1.782 1.678 2.884 0 0.964-0.461 1.877-1.306 2.597 0.082 0.231 0.339 0.727 1.145 1.535 0.099 0.091 0.161 0.222 0.161 0.368 0 0.276-0.224 0.5-0.5 0.5zM16.353 15.752c0.108 0 0.214 0.035 0.302 0.101 0.010 0.007 0.675 0.504 1.503 0.842-0.544-0.795-0.53-1.248-0.481-1.438 0.029-0.109 0.093-0.205 0.183-0.273 0.735-0.552 1.139-1.256 1.139-1.984 0-0.767-0.444-1.5-1.251-2.065-0.861-0.603-2.015-0.935-3.249-0.935s-2.388 0.332-3.249 0.935c-0.807 0.565-1.251 1.298-1.251 2.065s0.444 1.5 1.251 2.065c0.861 0.603 2.015 0.935 3.249 0.935 0.595 0 1.173-0.077 1.718-0.23 0.044-0.012 0.090-0.018 0.135-0.018z" fill="currentcolor"></path>
        <path d="M0.5 19c-0.225 0-0.422-0.15-0.482-0.367s0.032-0.447 0.225-0.562c1.691-1.014 2.392-2.489 2.641-3.179-1.838-1.407-2.884-3.354-2.884-5.392 0-1.029 0.258-2.026 0.768-2.964 0.486-0.894 1.18-1.695 2.061-2.381 1.787-1.39 4.156-2.156 6.671-2.156 2.278 0 4.481 0.644 6.202 1.814 1.735 1.179 2.871 2.811 3.199 4.595 0.050 0.272-0.13 0.532-0.401 0.582s-0.532-0.13-0.582-0.401c-0.279-1.519-1.266-2.921-2.778-3.949-1.557-1.058-3.56-1.641-5.64-1.641-4.687 0-8.5 2.916-8.5 6.5 0 1.815 1.005 3.562 2.756 4.792 0.172 0.121 0.25 0.336 0.196 0.539-0.117 0.436-0.515 1.633-1.58 2.788 1.302-0.456 2.704-1.247 3.739-1.959 0.123-0.085 0.277-0.11 0.421-0.069 0.948 0.271 1.947 0.409 2.968 0.409 0.276 0 0.5 0.224 0.5 0.5s-0.224 0.5-0.5 0.5c-1.033 0-2.047-0.129-3.016-0.385-0.429 0.286-1.231 0.793-2.189 1.27-1.488 0.74-2.764 1.115-3.794 1.115z" fill="currentcolor"></path>
    </symbol>    

    <symbol id="cross" viewBox="0 0 20 20">
        <path d="M10.707 10.5l5.646-5.646c0.195-0.195 0.195-0.512 0-0.707s-0.512-0.195-0.707 0l-5.646 5.646-5.646-5.646c-0.195-0.195-0.512-0.195-0.707 0s-0.195 0.512 0 0.707l5.646 5.646-5.646 5.646c-0.195 0.195-0.195 0.512 0 0.707 0.098 0.098 0.226 0.146 0.354 0.146s0.256-0.049 0.354-0.146l5.646-5.646 5.646 5.646c0.098 0.098 0.226 0.146 0.354 0.146s0.256-0.049 0.354-0.146c0.195-0.195 0.195-0.512 0-0.707l-5.646-5.646z" fill="currentcolor"></path>
    </symbol>

</svg>